<?xml version="1.0" encoding="UTF-8"?>
<svg id="Layer_1" data-name="Layer 1" xmlns="http://www.w3.org/2000/svg" viewBox="0 0 290 64">
  <defs>
    <style>
      .cls-1 {
        fill: #2463eb;
      }
    </style>
  </defs>
  <g>
    <circle class="cls-1" cx="36.73" cy="20" r="2.5"/>
    <path class="cls-1" d="M35.29,33.37c.36.39.87.63,1.45.63s1.08-.25,1.45-.63c.02-.02,5.59-6.27,5.61-6.29,1.82-1.81,2.94-4.31,2.94-7.08,0-5.52-4.48-10-10-10s-10,4.48-10,10c0,2.77,1.13,5.27,2.94,7.08.02.02,5.59,6.27,5.61,6.29ZM36.73,14c3.31,0,6,2.69,6,6,0,1.6-.63,3.11-1.79,4.27q-.08.08-2.53,2.83c-.57.64-1.16,1.3-1.68,1.88-.52-.58-1.11-1.24-1.68-1.88q-2.45-2.75-2.55-2.85c-1.14-1.13-1.77-2.64-1.77-4.25,0-3.31,2.69-6,6-6Z"/>
    <path class="cls-1" d="M48.21,36.01c-1.15-1.29-2.76-1.92-4.39-1.92-1.44,0-2.91.49-4.1,1.44l-4.11,3.29c-.55-2.74-2.97-4.81-5.88-4.81h-16c-2.21,0-4,1.79-4,4v12c0,2.21,1.79,4,4,4h19.21c1.8,0,3.56-.61,4.97-1.73l9.56-7.58c2.67-2.14,3.03-6.09.73-8.68ZM17.74,46v4h-4v-12h4v8ZM45.73,40.17c-.03.32-.16.93-.73,1.38l-9.56,7.58c-.7.56-1.59.87-2.49.87h-11.21v-12h8c1.1,0,2,.9,2,2s-.9,2-2,2h-2c-1.1,0-2,.9-2,2s.9,2,2,2h2.49c1.81,0,3.58-.62,5-1.75l7-5.6c.45-.36,1.02-.56,1.6-.56.33,0,.96.07,1.41.58.5.56.53,1.18.5,1.5Z"/>
  </g>
  <g>
    <path class="cls-1" d="M71.29,54c-1.95,0-3.77-.39-5.44-1.16-1.67-.77-3.05-1.9-4.11-3.38l3.29-3.91c.86,1.19,1.8,2.07,2.82,2.67,1.02.59,2.16.89,3.4.89,3.2,0,4.8-1.91,4.8-5.73v-16.04h-11.07v-4.89h16.8v20.62c0,3.67-.89,6.41-2.67,8.22-1.78,1.81-4.39,2.71-7.82,2.71Z"/>
    <path class="cls-1" d="M84.85,53.56l14-31.11h5.69l14.04,31.11h-6.09l-12-28.04h2.31l-12.04,28.04h-5.91ZM91.29,46.36l1.6-4.53h16.75l1.56,4.53h-19.91Z"/>
    <path class="cls-1" d="M132.18,54c-2.43,0-4.75-.35-6.96-1.05-2.21-.7-3.97-1.59-5.31-2.69l2-4.49c1.24.98,2.78,1.79,4.62,2.44s3.72.98,5.65.98c1.63,0,2.95-.18,3.95-.53,1.01-.36,1.75-.84,2.22-1.44.47-.61.71-1.3.71-2.07,0-.95-.34-1.71-1.02-2.29-.68-.58-1.57-1.04-2.65-1.38-1.08-.34-2.28-.65-3.6-.93-1.32-.28-2.64-.63-3.96-1.05-1.32-.41-2.52-.94-3.62-1.58-1.1-.64-1.98-1.49-2.64-2.56-.67-1.07-1-2.43-1-4.09s.45-3.24,1.36-4.64c.9-1.41,2.28-2.53,4.13-3.38,1.85-.84,4.2-1.27,7.05-1.27,1.87,0,3.72.24,5.56.71,1.83.48,3.44,1.16,4.8,2.05l-1.82,4.49c-1.39-.83-2.83-1.44-4.31-1.84-1.48-.4-2.9-.6-4.27-.6-1.57,0-2.86.19-3.87.58-1.01.39-1.74.9-2.2,1.53-.46.64-.69,1.34-.69,2.11,0,.95.33,1.71,1,2.29.67.58,1.54,1.03,2.62,1.35,1.08.33,2.29.64,3.62.93,1.33.3,2.65.65,3.96,1.05,1.31.4,2.5.92,3.6,1.56,1.1.64,1.98,1.48,2.65,2.53.67,1.05,1,2.39,1,4.02s-.45,3.19-1.36,4.6-2.29,2.53-4.16,3.38c-1.87.84-4.22,1.27-7.06,1.27Z"/>
    <path class="cls-1" d="M165.07,54c-2.4,0-4.63-.4-6.69-1.2-2.06-.8-3.84-1.93-5.36-3.38-1.51-1.45-2.68-3.15-3.51-5.09-.83-1.94-1.24-4.05-1.24-6.33s.41-4.44,1.24-6.38c.83-1.94,2-3.63,3.51-5.07,1.51-1.44,3.29-2.56,5.33-3.35,2.04-.8,4.28-1.2,6.71-1.2s4.62.39,6.67,1.18c2.04.79,3.81,1.9,5.31,3.33,1.5,1.44,2.66,3.13,3.49,5.09.83,1.96,1.24,4.09,1.24,6.4s-.42,4.44-1.24,6.38c-.83,1.94-1.99,3.64-3.49,5.09s-3.27,2.57-5.31,3.35c-2.05.78-4.27,1.18-6.67,1.18ZM165.07,48.93c1.57,0,3.01-.27,4.33-.8,1.32-.53,2.47-1.29,3.44-2.27.98-.98,1.74-2.13,2.29-3.47.55-1.33.82-2.8.82-4.4s-.27-3.07-.8-4.4c-.54-1.33-1.3-2.49-2.29-3.47-.99-.98-2.15-1.73-3.46-2.27-1.32-.53-2.76-.8-4.33-.8s-3.03.27-4.38.8c-1.35.53-2.51,1.3-3.49,2.29-.98.99-1.75,2.15-2.31,3.47-.56,1.32-.85,2.78-.85,4.38s.28,3.02.85,4.36c.56,1.33,1.33,2.5,2.31,3.49.98.99,2.14,1.76,3.49,2.29,1.35.53,2.81.8,4.38.8Z"/>
    <path class="cls-1" d="M187.91,53.56v-31.11h4.76l19.51,24h-2.35v-24h5.69v31.11h-4.76l-19.47-24h2.35v24h-5.73Z"/>
    <path class="cls-1" d="M223.91,53.56v-31.11h22.71v4.89h-16.93v21.33h17.55v4.89h-23.33ZM229.25,40.13v-4.76h15.47v4.76h-15.47Z"/>
    <path class="cls-1" d="M253.69,53.56v-31.11h12.76c4.15,0,7.4.99,9.75,2.95,2.35,1.97,3.53,4.67,3.53,8.11,0,2.28-.54,4.24-1.6,5.87-1.06,1.63-2.58,2.89-4.55,3.78-1.97.89-4.33,1.33-7.09,1.33h-9.56l2.54-2.58v11.64h-5.78ZM259.47,42.53l-2.54-2.8h9.29c2.55,0,4.47-.55,5.76-1.64,1.29-1.1,1.93-2.62,1.93-4.58s-.64-3.47-1.93-4.56c-1.29-1.08-3.21-1.62-5.76-1.62h-9.29l2.54-2.84v18.04ZM274.04,53.56l-7.87-11.29h6.18l7.91,11.29h-6.22Z"/>
  </g>
</svg>